<mxfile host="65bd71144e" modified="2020-12-13T11:28:58.166Z" agent="5.0 (X11; Linux x86_64) AppleWebKit/537.36 (KHTML, like Gecko) Code/1.51.1 Chrome/83.0.4103.122 Electron/9.3.3 Safari/537.36" etag="_QhV75Yu7xffWg1IZyNx" version="13.10.0" type="embed">
    <diagram id="kRDuzu7ikWpmD-jeQDag" name="PÃ¡gina-1">
        <mxGraphModel dx="1029" dy="701" grid="1" gridSize="10" guides="1" tooltips="1" connect="1" arrows="0" fold="1" page="1" pageScale="1" pageWidth="827" pageHeight="1169" math="0" shadow="0">
            <root>
                <mxCell id="0"/>
                <mxCell id="1" parent="0"/>
                <mxCell id="FerQvgeqPSbu73l90yjI-10" value="" style="verticalLabelPosition=bottom;dashed=0;shadow=0;html=1;align=center;verticalAlign=top;shape=mxgraph.cabinets.cb_2p;" parent="1" vertex="1">
                    <mxGeometry x="235" y="490" width="68" height="230" as="geometry"/>
                </mxCell>
                <mxCell id="FerQvgeqPSbu73l90yjI-75" style="edgeStyle=none;rounded=0;orthogonalLoop=1;jettySize=auto;html=1;exitX=0.828;exitY=0.151;exitDx=0;exitDy=0;strokeColor=#000000;endArrow=classic;endFill=1;exitPerimeter=0;entryX=0.647;entryY=0.97;entryDx=0;entryDy=0;entryPerimeter=0;" parent="1" edge="1" target="19" source="FerQvgeqPSbu73l90yjI-10">
                    <mxGeometry relative="1" as="geometry">
                        <mxPoint x="289" y="340" as="targetPoint"/>
                        <mxPoint x="289" y="477" as="sourcePoint"/>
                    </mxGeometry>
                </mxCell>
                <mxCell id="18" style="rounded=0;orthogonalLoop=1;jettySize=auto;html=1;exitX=0.5;exitY=0;exitDx=0;exitDy=0;strokeColor=#000000;endArrow=classic;endFill=1;entryX=0.403;entryY=0.993;entryDx=0;entryDy=0;entryPerimeter=0;" edge="1" parent="1" target="19">
                    <mxGeometry relative="1" as="geometry">
                        <mxPoint x="253.89999999999986" y="340.15999999999997" as="targetPoint"/>
                        <mxPoint x="256.44000000000005" y="523" as="sourcePoint"/>
                    </mxGeometry>
                </mxCell>
                <mxCell id="FerQvgeqPSbu73l90yjI-12" value="" style="verticalLabelPosition=bottom;dashed=0;shadow=0;html=1;align=center;verticalAlign=top;shape=mxgraph.cabinets.cb_2p;" parent="1" vertex="1">
                    <mxGeometry x="531" y="490" width="68" height="230" as="geometry"/>
                </mxCell>
                <mxCell id="FerQvgeqPSbu73l90yjI-79" style="edgeStyle=none;rounded=0;orthogonalLoop=1;jettySize=auto;html=1;exitX=0.5;exitY=0;exitDx=0;exitDy=0;strokeColor=#FFFF00;endArrow=oval;endFill=1;" parent="1" edge="1">
                    <mxGeometry relative="1" as="geometry">
                        <mxPoint x="290" y="380" as="targetPoint"/>
                        <mxPoint x="587" y="529" as="sourcePoint"/>
                        <Array as="points">
                            <mxPoint x="586" y="380"/>
                        </Array>
                    </mxGeometry>
                </mxCell>
                <mxCell id="FerQvgeqPSbu73l90yjI-87" value="///" style="edgeLabel;html=1;align=center;verticalAlign=middle;resizable=0;points=[];fontSize=14;fontColor=#000000;labelBackgroundColor=none;fontStyle=1" parent="FerQvgeqPSbu73l90yjI-79" vertex="1" connectable="0">
                    <mxGeometry x="0.3239" y="1" relative="1" as="geometry">
                        <mxPoint x="126.15" y="47" as="offset"/>
                    </mxGeometry>
                </mxCell>
                <mxCell id="FerQvgeqPSbu73l90yjI-80" style="edgeStyle=none;rounded=0;orthogonalLoop=1;jettySize=auto;html=1;exitX=0.5;exitY=0;exitDx=0;exitDy=0;strokeColor=#006600;endArrow=oval;endFill=1;" parent="1" edge="1">
                    <mxGeometry relative="1" as="geometry">
                        <mxPoint x="256" y="360" as="targetPoint"/>
                        <mxPoint x="552.44" y="526" as="sourcePoint"/>
                        <Array as="points">
                            <mxPoint x="550" y="360"/>
                        </Array>
                    </mxGeometry>
                </mxCell>
                <mxCell id="FerQvgeqPSbu73l90yjI-86" value="///" style="edgeLabel;html=1;align=center;verticalAlign=middle;resizable=0;points=[];fontSize=14;fontColor=#000000;labelBackgroundColor=none;fontStyle=1" parent="FerQvgeqPSbu73l90yjI-80" vertex="1" connectable="0">
                    <mxGeometry x="0.2888" y="1" relative="1" as="geometry">
                        <mxPoint x="178.17" y="67" as="offset"/>
                    </mxGeometry>
                </mxCell>
                <mxCell id="FerQvgeqPSbu73l90yjI-11" value="" style="verticalLabelPosition=bottom;dashed=0;shadow=0;html=1;align=center;verticalAlign=top;shape=mxgraph.cabinets.cb_2p;" parent="1" vertex="1">
                    <mxGeometry x="375" y="490" width="68" height="230" as="geometry"/>
                </mxCell>
                <mxCell id="FerQvgeqPSbu73l90yjI-73" style="edgeStyle=none;rounded=0;orthogonalLoop=1;jettySize=auto;html=1;strokeColor=#FFFF00;endArrow=classic;endFill=1;entryX=0.61;entryY=1;entryDx=0;entryDy=0;entryPerimeter=0;" parent="1" edge="1" target="24">
                    <mxGeometry relative="1" as="geometry">
                        <mxPoint x="429.44000000000005" y="341.6200000000001" as="targetPoint"/>
                        <mxPoint x="431" y="527" as="sourcePoint"/>
                    </mxGeometry>
                </mxCell>
                <mxCell id="FerQvgeqPSbu73l90yjI-8" value="" style="verticalLabelPosition=bottom;dashed=0;shadow=0;html=1;align=center;verticalAlign=top;shape=mxgraph.cabinets.cb_2p;" parent="1" vertex="1">
                    <mxGeometry x="81" y="490" width="68" height="230" as="geometry"/>
                </mxCell>
                <mxCell id="FerQvgeqPSbu73l90yjI-13" value="" style="verticalLabelPosition=bottom;dashed=0;shadow=0;html=1;align=center;verticalAlign=top;shape=mxgraph.cabinets.cb_2p;" parent="1" vertex="1">
                    <mxGeometry x="681" y="490" width="68" height="230" as="geometry"/>
                </mxCell>
                <mxCell id="FerQvgeqPSbu73l90yjI-17" value="RIGHT" style="text;html=1;strokeColor=none;fillColor=none;align=center;verticalAlign=middle;whiteSpace=wrap;rounded=0;" parent="1" vertex="1">
                    <mxGeometry x="95" y="560" width="40" height="20" as="geometry"/>
                </mxCell>
                <mxCell id="FerQvgeqPSbu73l90yjI-18" value="LEFT" style="text;html=1;strokeColor=none;fillColor=none;align=center;verticalAlign=middle;whiteSpace=wrap;rounded=0;" parent="1" vertex="1">
                    <mxGeometry x="249" y="560" width="40" height="20" as="geometry"/>
                </mxCell>
                <mxCell id="FerQvgeqPSbu73l90yjI-19" value="LEFT" style="text;html=1;strokeColor=none;fillColor=none;align=center;verticalAlign=middle;whiteSpace=wrap;rounded=0;" parent="1" vertex="1">
                    <mxGeometry x="545" y="560" width="40" height="20" as="geometry"/>
                </mxCell>
                <mxCell id="FerQvgeqPSbu73l90yjI-20" value="RIGHT" style="text;html=1;strokeColor=none;fillColor=none;align=center;verticalAlign=middle;whiteSpace=wrap;rounded=0;" parent="1" vertex="1">
                    <mxGeometry x="389" y="560" width="40" height="20" as="geometry"/>
                </mxCell>
                <mxCell id="FerQvgeqPSbu73l90yjI-21" value="HOME" style="text;html=1;strokeColor=none;fillColor=none;align=center;verticalAlign=middle;whiteSpace=wrap;rounded=0;" parent="1" vertex="1">
                    <mxGeometry x="695" y="560" width="40" height="20" as="geometry"/>
                </mxCell>
                <mxCell id="FerQvgeqPSbu73l90yjI-24" value="IN" style="text;html=1;strokeColor=none;fillColor=none;align=center;verticalAlign=middle;whiteSpace=wrap;rounded=0;" parent="1" vertex="1">
                    <mxGeometry x="92" y="630" width="16" height="20" as="geometry"/>
                </mxCell>
                <mxCell id="FerQvgeqPSbu73l90yjI-25" value="IN" style="text;html=1;strokeColor=none;fillColor=none;align=center;verticalAlign=middle;whiteSpace=wrap;rounded=0;" parent="1" vertex="1">
                    <mxGeometry x="124" y="630" width="16" height="20" as="geometry"/>
                </mxCell>
                <mxCell id="FerQvgeqPSbu73l90yjI-26" value="IN" style="text;html=1;strokeColor=none;fillColor=none;align=center;verticalAlign=middle;whiteSpace=wrap;rounded=0;" parent="1" vertex="1">
                    <mxGeometry x="277" y="630" width="16" height="20" as="geometry"/>
                </mxCell>
                <mxCell id="FerQvgeqPSbu73l90yjI-27" value="IN" style="text;html=1;strokeColor=none;fillColor=none;align=center;verticalAlign=middle;whiteSpace=wrap;rounded=0;" parent="1" vertex="1">
                    <mxGeometry x="245" y="630" width="16" height="20" as="geometry"/>
                </mxCell>
                <mxCell id="FerQvgeqPSbu73l90yjI-28" value="OUT" style="text;html=1;strokeColor=none;fillColor=none;align=center;verticalAlign=middle;whiteSpace=wrap;rounded=0;" parent="1" vertex="1">
                    <mxGeometry x="417" y="630" width="16" height="20" as="geometry"/>
                </mxCell>
                <mxCell id="FerQvgeqPSbu73l90yjI-29" value="OUT" style="text;html=1;strokeColor=none;fillColor=none;align=center;verticalAlign=middle;whiteSpace=wrap;rounded=0;" parent="1" vertex="1">
                    <mxGeometry x="385" y="630" width="16" height="20" as="geometry"/>
                </mxCell>
                <mxCell id="FerQvgeqPSbu73l90yjI-30" value="OUT" style="text;html=1;strokeColor=none;fillColor=none;align=center;verticalAlign=middle;whiteSpace=wrap;rounded=0;" parent="1" vertex="1">
                    <mxGeometry x="573" y="630" width="16" height="20" as="geometry"/>
                </mxCell>
                <mxCell id="FerQvgeqPSbu73l90yjI-31" value="OUT" style="text;html=1;strokeColor=none;fillColor=none;align=center;verticalAlign=middle;whiteSpace=wrap;rounded=0;" parent="1" vertex="1">
                    <mxGeometry x="541" y="630" width="16" height="20" as="geometry"/>
                </mxCell>
                <mxCell id="FerQvgeqPSbu73l90yjI-32" value="OUT" style="text;html=1;strokeColor=none;fillColor=none;align=center;verticalAlign=middle;whiteSpace=wrap;rounded=0;" parent="1" vertex="1">
                    <mxGeometry x="723" y="630" width="16" height="20" as="geometry"/>
                </mxCell>
                <mxCell id="FerQvgeqPSbu73l90yjI-33" value="OUT" style="text;html=1;strokeColor=none;fillColor=none;align=center;verticalAlign=middle;whiteSpace=wrap;rounded=0;" parent="1" vertex="1">
                    <mxGeometry x="691" y="630" width="16" height="20" as="geometry"/>
                </mxCell>
                <mxCell id="22" style="edgeStyle=none;rounded=0;orthogonalLoop=1;jettySize=auto;html=1;exitX=0.25;exitY=0;exitDx=0;exitDy=0;startArrow=none;startFill=0;endArrow=none;endFill=0;strokeColor=#000000;" edge="1" parent="1">
                    <mxGeometry relative="1" as="geometry">
                        <mxPoint x="103" y="450" as="targetPoint"/>
                        <mxPoint x="103.00000000000011" y="530" as="sourcePoint"/>
                    </mxGeometry>
                </mxCell>
                <mxCell id="FerQvgeqPSbu73l90yjI-34" value="L" style="text;html=1;strokeColor=none;fillColor=none;align=center;verticalAlign=middle;whiteSpace=wrap;rounded=0;" parent="1" vertex="1">
                    <mxGeometry x="91" y="530" width="16" height="20" as="geometry"/>
                </mxCell>
                <mxCell id="FerQvgeqPSbu73l90yjI-54" style="edgeStyle=none;rounded=0;orthogonalLoop=1;jettySize=auto;html=1;exitX=0.5;exitY=0;exitDx=0;exitDy=0;strokeColor=none;endArrow=none;endFill=0;" parent="1" edge="1">
                    <mxGeometry relative="1" as="geometry">
                        <mxPoint x="132" y="450" as="targetPoint"/>
                        <mxPoint x="132" y="527" as="sourcePoint"/>
                    </mxGeometry>
                </mxCell>
                <mxCell id="23" style="edgeStyle=none;rounded=0;orthogonalLoop=1;jettySize=auto;html=1;exitX=0.5;exitY=0;exitDx=0;exitDy=0;startArrow=none;startFill=0;endArrow=none;endFill=0;strokeColor=#000000;" edge="1" parent="1">
                    <mxGeometry relative="1" as="geometry">
                        <mxPoint x="135.9230769230769" y="480" as="targetPoint"/>
                        <mxPoint x="136.0000000000001" y="530" as="sourcePoint"/>
                    </mxGeometry>
                </mxCell>
                <mxCell id="FerQvgeqPSbu73l90yjI-35" value="N" style="text;html=1;strokeColor=none;fillColor=none;align=center;verticalAlign=middle;whiteSpace=wrap;rounded=0;" parent="1" vertex="1">
                    <mxGeometry x="123" y="530" width="16" height="20" as="geometry"/>
                </mxCell>
                <mxCell id="FerQvgeqPSbu73l90yjI-36" value="N" style="text;html=1;strokeColor=none;fillColor=none;align=center;verticalAlign=middle;whiteSpace=wrap;rounded=0;" parent="1" vertex="1">
                    <mxGeometry x="279" y="527" width="16" height="20" as="geometry"/>
                </mxCell>
                <mxCell id="FerQvgeqPSbu73l90yjI-37" value="L" style="text;html=1;strokeColor=none;fillColor=none;align=center;verticalAlign=middle;whiteSpace=wrap;rounded=0;" parent="1" vertex="1">
                    <mxGeometry x="245" y="527" width="16" height="20" as="geometry"/>
                </mxCell>
                <mxCell id="FerQvgeqPSbu73l90yjI-38" value="N" style="text;html=1;strokeColor=none;fillColor=none;align=center;verticalAlign=middle;whiteSpace=wrap;rounded=0;" parent="1" vertex="1">
                    <mxGeometry x="419" y="527" width="16" height="20" as="geometry"/>
                </mxCell>
                <mxCell id="FerQvgeqPSbu73l90yjI-39" value="L" style="text;html=1;strokeColor=none;fillColor=none;align=center;verticalAlign=middle;whiteSpace=wrap;rounded=0;" parent="1" vertex="1">
                    <mxGeometry x="387" y="527" width="16" height="20" as="geometry"/>
                </mxCell>
                <mxCell id="26" style="edgeStyle=none;rounded=0;orthogonalLoop=1;jettySize=auto;html=1;exitX=0.71;exitY=0.151;exitDx=0;exitDy=0;startFill=0;endArrow=oval;endFill=1;exitPerimeter=0;strokeColor=#FFFF00;" edge="1" parent="1">
                    <mxGeometry relative="1" as="geometry">
                        <mxPoint x="277" y="410" as="targetPoint"/>
                        <mxPoint x="576.28" y="524.73" as="sourcePoint"/>
                        <Array as="points">
                            <mxPoint x="576" y="410"/>
                        </Array>
                    </mxGeometry>
                </mxCell>
                <mxCell id="FerQvgeqPSbu73l90yjI-40" value="N" style="text;html=1;strokeColor=none;fillColor=none;align=center;verticalAlign=middle;whiteSpace=wrap;rounded=0;" parent="1" vertex="1">
                    <mxGeometry x="576" y="527" width="16" height="20" as="geometry"/>
                </mxCell>
                <mxCell id="25" style="edgeStyle=none;rounded=0;orthogonalLoop=1;jettySize=auto;html=1;exitX=0;exitY=0;exitDx=0;exitDy=0;startFill=0;endArrow=oval;endFill=1;strokeColor=#006600;" edge="1" parent="1">
                    <mxGeometry relative="1" as="geometry">
                        <mxPoint x="248" y="430" as="targetPoint"/>
                        <mxPoint x="544" y="527" as="sourcePoint"/>
                        <Array as="points">
                            <mxPoint x="540" y="430"/>
                        </Array>
                    </mxGeometry>
                </mxCell>
                <mxCell id="FerQvgeqPSbu73l90yjI-41" value="L" style="text;html=1;strokeColor=none;fillColor=none;align=center;verticalAlign=middle;whiteSpace=wrap;rounded=0;" parent="1" vertex="1">
                    <mxGeometry x="541" y="527" width="16" height="20" as="geometry"/>
                </mxCell>
                <mxCell id="FerQvgeqPSbu73l90yjI-50" style="rounded=0;orthogonalLoop=1;jettySize=auto;html=1;exitX=0.5;exitY=0;exitDx=0;exitDy=0;strokeColor=#006600;" parent="1" source="FerQvgeqPSbu73l90yjI-42" edge="1">
                    <mxGeometry relative="1" as="geometry">
                        <mxPoint x="733" y="390" as="targetPoint"/>
                    </mxGeometry>
                </mxCell>
                <mxCell id="FerQvgeqPSbu73l90yjI-42" value="N" style="text;html=1;strokeColor=none;fillColor=none;align=center;verticalAlign=middle;whiteSpace=wrap;rounded=0;" parent="1" vertex="1">
                    <mxGeometry x="725" y="527" width="16" height="20" as="geometry"/>
                </mxCell>
                <mxCell id="FerQvgeqPSbu73l90yjI-49" style="edgeStyle=none;rounded=0;orthogonalLoop=1;jettySize=auto;html=1;exitX=0.5;exitY=0;exitDx=0;exitDy=0;strokeColor=#006600;" parent="1" source="FerQvgeqPSbu73l90yjI-43" edge="1">
                    <mxGeometry relative="1" as="geometry">
                        <mxPoint x="699" y="390" as="targetPoint"/>
                    </mxGeometry>
                </mxCell>
                <mxCell id="FerQvgeqPSbu73l90yjI-43" value="L" style="text;html=1;strokeColor=none;fillColor=none;align=center;verticalAlign=middle;whiteSpace=wrap;rounded=0;" parent="1" vertex="1">
                    <mxGeometry x="691" y="527" width="16" height="20" as="geometry"/>
                </mxCell>
                <mxCell id="FerQvgeqPSbu73l90yjI-46" value="Salida Vivienda" style="text;html=1;strokeColor=none;fillColor=none;align=center;verticalAlign=middle;whiteSpace=wrap;rounded=0;" parent="1" vertex="1">
                    <mxGeometry x="695" y="365" width="40" height="20" as="geometry"/>
                </mxCell>
                <mxCell id="FerQvgeqPSbu73l90yjI-51" value="Salida Exterior Izquierda" style="text;html=1;strokeColor=none;fillColor=none;align=center;verticalAlign=middle;whiteSpace=wrap;rounded=0;" parent="1" vertex="1">
                    <mxGeometry x="62" y="220" width="140" height="20" as="geometry"/>
                </mxCell>
                <mxCell id="16" value="" style="endArrow=oval;html=1;strokeColor=#005700;endFill=1;fillColor=#008a00;" parent="1" edge="1">
                    <mxGeometry width="50" height="50" relative="1" as="geometry">
                        <mxPoint x="394" y="480" as="sourcePoint"/>
                        <mxPoint x="136" y="480" as="targetPoint"/>
                    </mxGeometry>
                </mxCell>
                <mxCell id="FerQvgeqPSbu73l90yjI-92" value="" style="endArrow=oval;html=1;endFill=1;fillColor=#e3c800;strokeColor=#FFFF00;" parent="1" edge="1">
                    <mxGeometry width="50" height="50" relative="1" as="geometry">
                        <mxPoint x="428" y="450" as="sourcePoint"/>
                        <mxPoint x="103" y="450" as="targetPoint"/>
                    </mxGeometry>
                </mxCell>
                <mxCell id="FerQvgeqPSbu73l90yjI-71" style="edgeStyle=none;rounded=0;orthogonalLoop=1;jettySize=auto;html=1;exitX=0.5;exitY=0;exitDx=0;exitDy=0;strokeColor=#006600;startArrow=none;startFill=0;endArrow=classic;endFill=1;entryX=0.36;entryY=1.081;entryDx=0;entryDy=0;entryPerimeter=0;" parent="1" edge="1" target="24">
                    <mxGeometry relative="1" as="geometry">
                        <mxPoint x="396" y="390" as="targetPoint"/>
                        <mxPoint x="395.44000000000005" y="526" as="sourcePoint"/>
                    </mxGeometry>
                </mxCell>
                <mxCell id="FerQvgeqPSbu73l90yjI-84" value="//" style="edgeLabel;html=1;align=center;verticalAlign=middle;resizable=0;points=[];labelBackgroundColor=none;fontSize=14;fontColor=#000000;fontStyle=1" parent="FerQvgeqPSbu73l90yjI-71" vertex="1" connectable="0">
                    <mxGeometry x="0.2517" y="2" relative="1" as="geometry">
                        <mxPoint x="-1.7899999999999991" y="69.37" as="offset"/>
                    </mxGeometry>
                </mxCell>
                <mxCell id="17" value="//" style="edgeLabel;html=1;align=center;verticalAlign=middle;resizable=0;points=[];labelBackgroundColor=none;fontSize=14;fontColor=#000000;fontStyle=1" vertex="1" connectable="0" parent="FerQvgeqPSbu73l90yjI-71">
                    <mxGeometry x="0.2517" y="2" relative="1" as="geometry">
                        <mxPoint x="31.21" y="69.37" as="offset"/>
                    </mxGeometry>
                </mxCell>
                <mxCell id="19" value="VoltÃ­metro Left" style="text;html=1;strokeColor=none;fillColor=none;align=center;verticalAlign=middle;whiteSpace=wrap;rounded=0;" vertex="1" parent="1">
                    <mxGeometry x="199" y="251.5" width="140" height="20" as="geometry"/>
                </mxCell>
                <mxCell id="20" style="edgeStyle=none;rounded=0;orthogonalLoop=1;jettySize=auto;html=1;strokeColor=#000000;endArrow=classic;endFill=1;entryX=0.25;entryY=1;entryDx=0;entryDy=0;exitX=0;exitY=0;exitDx=0;exitDy=0;" edge="1" parent="1">
                    <mxGeometry relative="1" as="geometry">
                        <mxPoint x="99" y="240" as="targetPoint"/>
                        <mxPoint x="249" y="527" as="sourcePoint"/>
                        <Array as="points">
                            <mxPoint x="249" y="430"/>
                            <mxPoint x="99" y="430"/>
                        </Array>
                    </mxGeometry>
                </mxCell>
                <mxCell id="21" style="edgeStyle=none;rounded=0;orthogonalLoop=1;jettySize=auto;html=1;strokeColor=#000000;endArrow=classic;endFill=1;entryX=0.407;entryY=1.004;entryDx=0;entryDy=0;entryPerimeter=0;" edge="1" parent="1" target="FerQvgeqPSbu73l90yjI-51">
                    <mxGeometry relative="1" as="geometry">
                        <mxPoint x="116" y="340" as="targetPoint"/>
                        <mxPoint x="280" y="526" as="sourcePoint"/>
                        <Array as="points">
                            <mxPoint x="280" y="450"/>
                            <mxPoint x="280" y="410"/>
                            <mxPoint x="119" y="410"/>
                        </Array>
                    </mxGeometry>
                </mxCell>
                <mxCell id="24" value="VoltÃ­metro Right" style="text;html=1;strokeColor=none;fillColor=none;align=center;verticalAlign=middle;whiteSpace=wrap;rounded=0;" vertex="1" parent="1">
                    <mxGeometry x="344" y="250" width="140" height="20" as="geometry"/>
                </mxCell>
                <mxCell id="27" style="edgeStyle=none;rounded=0;orthogonalLoop=1;jettySize=auto;html=1;exitX=0.172;exitY=0.162;exitDx=0;exitDy=0;startArrow=none;startFill=0;endArrow=none;endFill=0;strokeColor=#000000;exitPerimeter=0;" edge="1" parent="1" source="FerQvgeqPSbu73l90yjI-8">
                    <mxGeometry relative="1" as="geometry">
                        <mxPoint x="70" y="300" as="targetPoint"/>
                        <mxPoint x="94.23000000000012" y="529" as="sourcePoint"/>
                        <Array as="points">
                            <mxPoint x="93" y="460"/>
                            <mxPoint x="70" y="460"/>
                            <mxPoint x="70" y="400"/>
                            <mxPoint x="70" y="300"/>
                            <mxPoint x="570" y="300"/>
                        </Array>
                    </mxGeometry>
                </mxCell>
                <mxCell id="29" value="Salida Exterior Derecha" style="text;html=1;strokeColor=none;fillColor=none;align=center;verticalAlign=middle;whiteSpace=wrap;rounded=0;" vertex="1" parent="1">
                    <mxGeometry x="520" y="220" width="140" height="20" as="geometry"/>
                </mxCell>
                <mxCell id="30" style="edgeStyle=none;rounded=0;orthogonalLoop=1;jettySize=auto;html=1;startArrow=none;startFill=0;endArrow=oval;endFill=1;strokeColor=#000000;" edge="1" parent="1">
                    <mxGeometry relative="1" as="geometry">
                        <mxPoint x="387" y="300" as="targetPoint"/>
                        <mxPoint x="386.99999999999994" y="527" as="sourcePoint"/>
                    </mxGeometry>
                </mxCell>
                <mxCell id="31" style="edgeStyle=none;rounded=0;orthogonalLoop=1;jettySize=auto;html=1;startArrow=none;startFill=0;endArrow=oval;endFill=1;strokeColor=#000000;" edge="1" parent="1">
                    <mxGeometry relative="1" as="geometry">
                        <mxPoint x="421" y="320" as="targetPoint"/>
                        <mxPoint x="420.77" y="530" as="sourcePoint"/>
                    </mxGeometry>
                </mxCell>
                <mxCell id="32" style="edgeStyle=none;rounded=0;orthogonalLoop=1;jettySize=auto;html=1;exitX=0.25;exitY=0;exitDx=0;exitDy=0;startArrow=none;startFill=0;endArrow=none;endFill=0;strokeColor=#000000;" edge="1" parent="1">
                    <mxGeometry relative="1" as="geometry">
                        <mxPoint x="130" y="320" as="targetPoint"/>
                        <mxPoint x="127.00000000000014" y="530" as="sourcePoint"/>
                        <Array as="points">
                            <mxPoint x="130" y="320"/>
                            <mxPoint x="630" y="320"/>
                        </Array>
                    </mxGeometry>
                </mxCell>
                <mxCell id="33" style="edgeStyle=none;rounded=0;orthogonalLoop=1;jettySize=auto;html=1;startArrow=none;startFill=0;endArrow=classic;endFill=1;strokeColor=#000000;" edge="1" parent="1">
                    <mxGeometry relative="1" as="geometry">
                        <mxPoint x="569.9992307692307" y="240" as="targetPoint"/>
                        <mxPoint x="570" y="300" as="sourcePoint"/>
                    </mxGeometry>
                </mxCell>
                <mxCell id="34" style="edgeStyle=none;rounded=0;orthogonalLoop=1;jettySize=auto;html=1;startArrow=none;startFill=0;endArrow=classic;endFill=1;strokeColor=#000000;entryX=0.786;entryY=1;entryDx=0;entryDy=0;entryPerimeter=0;" edge="1" parent="1" target="29">
                    <mxGeometry relative="1" as="geometry">
                        <mxPoint x="629.9992307692307" y="260" as="targetPoint"/>
                        <mxPoint x="630" y="320" as="sourcePoint"/>
                    </mxGeometry>
                </mxCell>
            </root>
        </mxGraphModel>
    </diagram>
</mxfile>